<svg width="92" height="92" viewBox="0 0 1920 1080" fill="none" xmlns="http://www.w3.org/2000/svg">
<path d="M144.138 608.725L197.639 433.787C197.741 433.456 198.005 433.201 198.34 433.112L1568.62 70.3519C1569.2 70.1978 1569.79 70.5896 1569.87 71.1869L1609.09 364.999C1609.23 366.043 1610.68 366.19 1611.03 365.195L1724.97 37.9309C1725.09 37.594 1725.38 37.345 1725.73 37.2774L1918.81 0.0188526C1919.57 -0.128315 1920.2 0.611874 1919.94 1.34224L1683.99 652.683C1683.87 652.995 1683.61 653.23 1683.29 653.312L1498.1 700.652C1497.51 700.802 1496.93 700.397 1496.86 699.793L1451.85 295.754C1451.73 294.689 1450.25 294.531 1449.91 295.547L1297.5 750.686C1297.4 751.01 1297.13 751.256 1296.8 751.339L1109.45 798.51C1108.68 798.704 1108 797.965 1108.26 797.213L1276.75 308.106C1277.01 307.347 1276.32 306.605 1275.55 306.813L145.354 609.985C144.595 610.188 143.908 609.477 144.138 608.725Z" fill="white"/>
<path d="M0.0464553 1078.7L44.927 934.394C45.0284 934.068 45.289 933.816 45.6183 933.726L322.303 857.999C323.097 857.782 323.799 858.562 323.499 859.329L263.174 1013.55C263.056 1013.85 262.8 1014.07 262.486 1014.15L1.24624 1079.97C0.48866 1080.16 -0.185586 1079.45 0.0464553 1078.7Z" fill="white"/>
<path d="M67.1275 860.413L123.424 680.397C123.525 680.073 123.784 679.822 124.112 679.732L747.376 506.906C748.151 506.691 748.85 507.431 748.591 508.192L685.243 694.458C685.136 694.773 684.878 695.014 684.557 695.101L68.3435 861.678C67.5812 861.884 66.8918 861.167 67.1275 860.413Z" fill="white"/>
<path d="M761.716 884.419L898.112 467.128C898.216 466.81 898.471 466.566 898.793 466.476L1080.75 415.622C1081.51 415.408 1082.21 416.135 1081.97 416.894L945.585 839.142C945.479 839.47 945.212 839.721 944.878 839.805L762.912 885.7C762.148 885.893 761.472 885.168 761.716 884.419Z" fill="white"/>
</svg>
